<svg width="239" height="220" viewBox="0 0 239 220" fill="none" xmlns="http://www.w3.org/2000/svg">
<g clip-path="url(#clip0_537_34)">
<mask id="mask0_537_34" style="mask-type:alpha" maskUnits="userSpaceOnUse" x="0" y="0" width="239" height="220">
<path d="M3.05176e-05 220L238.759 220L238.759 3.05176e-05L1.12846e-05 5.13905e-05L3.05176e-05 220Z" fill="white"/>
</mask>
<g mask="url(#mask0_537_34)">
<path d="M150.167 149.941C149.151 150.951 148.345 152.152 147.795 153.475C147.246 154.798 146.964 156.216 146.965 157.649C146.966 159.081 147.251 160.5 147.802 161.822C148.354 163.144 149.162 164.343 150.18 165.352C151.197 166.36 152.404 167.157 153.731 167.697C155.058 168.237 156.479 168.509 157.911 168.497C159.344 168.485 160.76 168.19 162.078 167.629C163.396 167.068 164.589 166.251 165.59 165.226C174.636 156.088 180.77 144.474 183.216 131.85C185.662 119.227 184.311 106.162 179.333 94.3068C174.355 82.4516 165.975 72.3382 155.25 65.2451C144.526 58.1509 131.939 54.3967 119.081 54.456C106.224 54.5142 93.6712 58.3838 83.0122 65.575C72.3533 72.7663 64.0651 82.9561 59.1967 94.857C54.3273 106.757 53.0956 119.834 55.6582 132.434C58.2197 145.035 64.4589 156.592 73.5883 165.647C74.6008 166.651 75.8016 167.445 77.1223 167.985C78.4418 168.524 79.855 168.799 81.2818 168.792C82.7075 168.785 84.1183 168.498 85.4333 167.946C86.7483 167.394 87.9411 166.589 88.9456 165.576C89.9489 164.563 90.7434 163.362 91.2822 162.042C91.8221 160.722 92.096 159.309 92.0903 157.883C92.0835 156.457 91.7958 155.046 91.2445 153.731C90.692 152.416 89.8862 151.223 88.8737 150.219C82.7862 144.186 78.6233 136.482 76.9134 128.083C75.2035 119.684 76.0231 110.967 79.2671 103.033C82.5111 95.1001 88.0347 88.3061 95.1403 83.512C102.245 78.7178 110.612 76.1381 119.183 76.0982C127.754 76.0594 136.145 78.5626 143.293 83.2917C150.442 88.0208 156.028 94.7634 159.344 102.667C162.661 110.57 163.56 119.28 161.927 127.694C160.294 136.108 156.203 143.849 150.17 149.938L150.167 149.941Z" fill="#3A5BA0"/>
<path d="M73.7737 220C80.9055 219.987 87.9643 218.559 94.5415 215.8C101.119 213.041 107.083 209.004 112.089 203.925C114.118 201.882 116.873 200.727 119.752 200.714C122.631 200.701 125.397 201.831 127.444 203.855C137.68 213.973 151.511 219.619 165.904 219.553C180.296 219.487 194.075 213.715 204.218 203.503C220.826 186.727 232.088 165.404 236.58 142.229C241.071 119.054 238.591 95.0666 229.453 73.3012C220.315 51.5347 204.928 32.9665 185.239 19.9435C165.55 6.92056 142.441 0.0272651 118.835 0.135706C95.2286 0.243006 72.1847 7.3475 52.6155 20.5497C33.0451 33.7518 17.8294 52.4604 8.89061 74.308C-0.0481878 96.1568 -2.30945 120.166 2.39452 143.299C7.09735 166.432 18.5531 187.652 35.3143 204.275C40.3665 209.309 46.3671 213.29 52.9694 215.99C59.5704 218.689 66.6418 220.052 73.7737 220ZM50.602 188.85C36.8724 175.247 27.4862 157.877 23.6292 138.939C19.7722 120 21.6168 100.344 28.9313 82.4535C36.2458 64.5633 48.7003 49.2449 64.7219 38.433C80.7423 27.6222 99.6095 21.8041 118.937 21.7162C138.264 21.6272 157.183 27.2717 173.302 37.9364C189.421 48.6 202.016 63.8054 209.494 81.6271C216.972 99.4487 218.997 119.089 215.313 138.062C211.629 157.035 202.402 174.489 188.798 188.218C182.712 194.345 174.444 197.808 165.808 197.848C157.172 197.887 148.873 194.5 142.731 188.429C136.59 182.358 128.292 178.97 119.656 179.01C111.021 179.049 102.754 182.512 96.6691 188.639C90.5886 194.775 82.3187 198.245 73.6801 198.284C65.0415 198.324 56.7407 194.931 50.6042 188.85" fill="#3A5BA0"/>
<path d="M119.381 100.217C109.638 100.217 101.74 108.115 101.74 117.858C101.74 127.601 109.638 135.499 119.381 135.499C129.124 135.499 137.023 127.601 137.023 117.858C137.023 108.115 129.124 100.217 119.381 100.217Z" fill="#3A5BA0"/>
</g>
</g>
<defs>
<clipPath id="clip0_537_34">
<rect width="239" height="220" fill="white"/>
</clipPath>
</defs>
</svg>
